<svg width="14" height="14" viewBox="0 0 14 14" fill="none" xmlns="http://www.w3.org/2000/svg">
<path d="M9.5 1.5H11C11.2652 1.5 11.5196 1.60536 11.7071 1.79289C11.8946 1.98043 12 2.23478 12 2.5V12.5C12 12.7652 11.8946 13.0196 11.7071 13.2071C11.5196 13.3946 11.2652 13.5 11 13.5H3C2.73478 13.5 2.48043 13.3946 2.29289 13.2071C2.10536 13.0196 2 12.7652 2 12.5V2.5C2 2.23478 2.10536 1.98043 2.29289 1.79289C2.48043 1.60536 2.73478 1.5 3 1.5H4.5" stroke="#000001" stroke-linecap="round" stroke-linejoin="round"/>
<path d="M8.5 0.5H5.5C4.94772 0.5 4.5 0.947715 4.5 1.5V2C4.5 2.55228 4.94772 3 5.5 3H8.5C9.05228 3 9.5 2.55228 9.5 2V1.5C9.5 0.947715 9.05228 0.5 8.5 0.5Z" stroke="#000001" stroke-linecap="round" stroke-linejoin="round"/>
<path d="M4.5 8.5L6.5 10L9 6" stroke="#000001" stroke-linecap="round" stroke-linejoin="round"/>
</svg>
