<svg width="24" height="20" viewBox="0 0 24 20" fill="none" xmlns="http://www.w3.org/2000/svg">
<path fill-rule="evenodd" clip-rule="evenodd" d="M2.53804 2.60371C3.52315 1.61891 4.85906 1.06567 6.25199 1.06567C7.64493 1.06567 8.98084 1.61891 9.96594 2.60371L11.5051 4.14156L13.0443 2.60371C13.5289 2.10199 14.1085 1.70179 14.7494 1.42648C15.3903 1.15117 16.0796 1.00626 16.7771 1.0002C17.4746 0.994137 18.1664 1.12705 18.8119 1.39118C19.4575 1.65531 20.0441 2.04537 20.5373 2.5386C21.0305 3.03183 21.4206 3.61835 21.6847 4.26394C21.9488 4.90953 22.0818 5.60126 22.0757 6.29876C22.0696 6.99627 21.9247 7.68558 21.6494 8.32648C21.3741 8.96738 20.9739 9.54704 20.4722 10.0316L11.5051 19L2.53804 10.0316C1.55323 9.04652 1 7.71061 1 6.31767C1 4.92473 1.55323 3.58882 2.53804 2.60371V2.60371Z" stroke="black" stroke-width="2" stroke-linejoin="round"/>
</svg>
