<svg width="24" height="22" viewBox="0 0 24 22" fill="none" xmlns="http://www.w3.org/2000/svg">
<path d="M8.56302 16V18.5C8.56302 19.163 8.82863 19.7989 9.30141 20.2678C9.77419 20.7366 10.4154 21 11.084 21L19.9076 21C20.5762 21 21.2174 20.7366 21.6902 20.2678C22.163 19.7989 22.4286 19.163 22.4286 18.5L22.4286 3.5C22.4286 2.83696 22.163 2.20108 21.6902 1.73223C21.2174 1.26339 20.5762 1 19.9076 1L11.084 1C10.4154 1 9.77419 1.26339 9.30141 1.73223C8.82863 2.20107 8.56303 2.83696 8.56303 3.5V6M16.1261 11L1 11M1 11L4.78151 14.75M1 11L4.78151 7.25" stroke="#999999" stroke-width="2" stroke-linecap="round" stroke-linejoin="round"/>
</svg>
