<svg width="22" height="22" viewBox="0 0 22 22" fill="none" xmlns="http://www.w3.org/2000/svg">
<path d="M14.1994 11.8093L13.6539 10.9713L13.6399 10.9803L13.6263 10.9899L14.1994 11.8093ZM14.1994 10.4332L13.6065 11.2384L13.6511 11.2712L13.6991 11.299L14.1994 10.4332ZM8.68402 6.37187L9.27697 5.56662L9.24875 5.54585L9.21915 5.52709L8.68402 6.37187ZM7.52775 6.97847L8.52775 6.97557L8.52772 6.96682L8.52754 6.95807L7.52775 6.97847ZM7.55088 14.9562L6.55088 14.9591L6.55096 14.9874L6.55265 15.0156L7.55088 14.9562ZM8.74955 15.621L9.23376 16.4959L9.27968 16.4705L9.32268 16.4405L8.74955 15.621ZM4.6 2.3999H16.6V0.399902H4.6V2.3999ZM19.2 4.9999V16.9999H21.2V4.9999H19.2ZM16.6 19.5999H4.6V21.5999H16.6V19.5999ZM2 16.9999V4.9999H0V16.9999H2ZM4.6 19.5999C3.16406 19.5999 2 18.4358 2 16.9999H0C0 19.5404 2.05949 21.5999 4.6 21.5999V19.5999ZM19.2 16.9999C19.2 18.4358 18.0359 19.5999 16.6 19.5999V21.5999C19.1405 21.5999 21.2 19.5404 21.2 16.9999H19.2ZM16.6 2.3999C18.0359 2.3999 19.2 3.56396 19.2 4.9999H21.2C21.2 2.45939 19.1405 0.399902 16.6 0.399902V2.3999ZM4.6 0.399902C2.05949 0.399902 0 2.45939 0 4.9999H2C2 3.56396 3.16406 2.3999 4.6 2.3999V0.399902ZM14.745 12.6474C15.1794 12.3646 15.7285 11.8602 15.7275 11.1C15.7264 10.3173 15.1492 9.82704 14.6998 9.56734L13.6991 11.299C13.8037 11.3595 13.823 11.3909 13.8084 11.3723C13.7868 11.3448 13.7277 11.2501 13.7275 11.1027C13.7273 10.9591 13.7834 10.8745 13.7921 10.8627C13.7964 10.8569 13.7656 10.8985 13.6539 10.9713L14.745 12.6474ZM14.7924 9.62791L9.27697 5.56662L8.09108 7.17711L13.6065 11.2384L14.7924 9.62791ZM9.21915 5.52709C8.74854 5.22898 8.08766 5.05818 7.46264 5.35001C6.7824 5.66763 6.51476 6.35185 6.52796 6.99888L8.52754 6.95807C8.52635 6.89951 8.53854 6.91844 8.50778 6.97729C8.47313 7.04359 8.40544 7.11708 8.30879 7.1622C8.12283 7.24903 8.0478 7.1526 8.1489 7.21664L9.21915 5.52709ZM6.52776 6.98137L6.55088 14.9591L8.55087 14.9533L8.52775 6.97557L6.52776 6.98137ZM6.55265 15.0156C6.58446 15.5499 6.7702 16.2622 7.44063 16.6203C8.10073 16.9728 8.78798 16.7426 9.23376 16.4959L8.26533 14.746C8.16621 14.8009 8.12725 14.804 8.1429 14.8018C8.16655 14.7985 8.26421 14.7928 8.38283 14.8561C8.50311 14.9204 8.55517 15.0077 8.56778 15.0346C8.5761 15.0523 8.55633 15.018 8.54911 14.8968L6.55265 15.0156ZM9.32268 16.4405L14.7726 12.6288L13.6263 10.9899L8.17641 14.8015L9.32268 16.4405Z" fill="#DCDCDC"/>
</svg>
