<svg width="27" height="27" viewBox="0 0 27 27" fill="none" xmlns="http://www.w3.org/2000/svg">
<path d="M23.2222 1C24.7563 1 26 2.22661 26 3.73972L26 8.41656C26 9.92967 24.7564 11.1563 23.2222 11.1563H19.0556C17.5214 11.1563 16.2778 9.92967 16.2778 8.41656L16.2778 3.73972C16.2778 2.22661 17.5214 1 19.0556 1L23.2222 1Z" stroke="#999999" stroke-width="2" stroke-linecap="round" stroke-linejoin="round"/>
<path d="M3.77778 1C2.24365 1 0.999998 2.22661 0.999999 3.73972L1.00001 8.41656C1.00001 9.92967 2.24366 11.1563 3.77779 11.1563H7.94445C9.47858 11.1563 10.7222 9.92967 10.7222 8.41656L10.7222 3.73972C10.7222 2.22661 9.47857 1 7.94444 1L3.77778 1Z" stroke="#999999" stroke-width="2" stroke-linecap="round" stroke-linejoin="round"/>
<path d="M23.2222 15.8438C24.7564 15.8438 26 17.0704 26 18.5835V23.2603C26 24.7734 24.7564 26 23.2222 26H19.0556C17.5214 26 16.2778 24.7734 16.2778 23.2603L16.2778 18.5835C16.2778 17.0704 17.5214 15.8438 19.0556 15.8438H23.2222Z" stroke="#999999" stroke-width="2" stroke-linecap="round" stroke-linejoin="round"/>
<path d="M3.77779 15.8438C2.24366 15.8438 1.00001 17.0704 1.00001 18.5835L1.00001 23.2603C1.00001 24.7734 2.24367 26 3.77779 26H7.94446C9.47858 26 10.7222 24.7734 10.7222 23.2603L10.7222 18.5835C10.7222 17.0704 9.47858 15.8438 7.94445 15.8438H3.77779Z" stroke="#999999" stroke-width="2" stroke-linecap="round" stroke-linejoin="round"/>
</svg>
