<svg width="30" height="30" viewBox="0 0 30 30" fill="none" xmlns="http://www.w3.org/2000/svg">
<path d="M6.42857 21.2857H5.28571C4.02335 21.2857 3 20.2624 3 19V8.71427C3 7.45191 4.02335 6.42856 5.28571 6.42856H15.5714C16.8338 6.42856 17.8571 7.45191 17.8571 8.71427V19C17.8571 20.2624 16.8338 21.2857 15.5714 21.2857H14.4286M19.5714 21.2857H19C18.3688 21.2857 17.8571 20.774 17.8571 20.1428V10.4286C17.8571 9.79738 18.3688 9.2857 19 9.2857H21.8793C22.2265 9.2857 22.5548 9.44352 22.7717 9.71462L26.7496 14.6869C26.9117 14.8896 27 15.1414 27 15.4009V20.1428C27 20.774 26.4883 21.2857 25.8571 21.2857M13.2857 20.7143C13.2857 22.2922 12.0065 23.5714 10.4286 23.5714C8.85061 23.5714 7.57143 22.2922 7.57143 20.7143C7.57143 19.1363 8.85061 17.8571 10.4286 17.8571C12.0065 17.8571 13.2857 19.1363 13.2857 20.7143ZM25.2857 20.7143C25.2857 22.2922 24.0065 23.5714 22.4286 23.5714C20.8506 23.5714 19.5714 22.2922 19.5714 20.7143C19.5714 19.1363 20.8506 17.8571 22.4286 17.8571C24.0065 17.8571 25.2857 19.1363 25.2857 20.7143Z" stroke="#999999" stroke-width="2" stroke-linecap="round"/>
</svg>
