<svg width="22" height="22" viewBox="0 0 22 22" fill="none" xmlns="http://www.w3.org/2000/svg">
<path d="M20.375 12C20.9273 12 21.375 11.5523 21.375 11C21.375 10.4477 20.9273 10 20.375 10V12ZM20 11C20 15.9706 15.9706 20 11 20V22C17.0751 22 22 17.0751 22 11H20ZM11 20C6.02944 20 2 15.9706 2 11H0C0 17.0751 4.92487 22 11 22V20ZM2 11C2 6.02944 6.02944 2 11 2V0C4.92487 0 0 4.92487 0 11H2ZM11 2C15.9706 2 20 6.02944 20 11H22C22 4.92487 17.0751 0 11 0V2ZM11 20C10.7268 20 10.3877 19.8777 9.99212 19.4952C9.59171 19.1081 9.18544 18.4997 8.82257 17.6702C8.09812 16.0144 7.625 13.6569 7.625 11H5.625C5.625 13.866 6.13126 16.5085 6.99025 18.4719C7.4191 19.4521 7.95556 20.3081 8.60199 20.9331C9.25323 21.5627 10.0651 22 11 22V20ZM7.625 11C7.625 8.34314 8.09812 5.98563 8.82257 4.32975C9.18544 3.50033 9.59171 2.8919 9.99212 2.5048C10.3877 2.12235 10.7268 2 11 2V0C10.0651 0 9.25323 0.437297 8.60199 1.0669C7.95556 1.69185 7.4191 2.54789 6.99025 3.52811C6.13126 5.49153 5.625 8.13401 5.625 11H7.625ZM11 22C11.9349 22 12.7468 21.5627 13.398 20.9331C14.0444 20.3081 14.5809 19.4521 15.0097 18.4719C15.8687 16.5085 16.375 13.866 16.375 11H14.375C14.375 13.6569 13.9019 16.0144 13.1774 17.6702C12.8146 18.4997 12.4083 19.1081 12.0079 19.4952C11.6123 19.8777 11.2732 20 11 20V22ZM16.375 11C16.375 8.13401 15.8687 5.49153 15.0097 3.52811C14.5809 2.54789 14.0444 1.69185 13.398 1.0669C12.7468 0.437297 11.9349 0 11 0V2C11.2732 2 11.6123 2.12235 12.0079 2.5048C12.4083 2.8919 12.8146 3.50033 13.1774 4.32975C13.9019 5.98563 14.375 8.34314 14.375 11H16.375ZM1 12L20.375 12V10L1 10L1 12Z" fill="#999999"/>
</svg>
